<?xml version="1.0" standalone="no"?>
<!DOCTYPE svg PUBLIC "-//W3C//DTD SVG 1.1//EN" "http://www.w3.org/Graphics/SVG/1.1/DTD/svg11.dtd">
<svg xmlns="http://www.w3.org/2000/svg">
<defs >
<font id="Figtree" horiz-adv-x="534" ><font-face
    font-family="Figtree Light ExtraBold"
    units-per-em="1000"
    panose-1="0 0 0 0 0 0 0 0 0 0"
    ascent="950"
    descent="-250"
    alphabetic="0" />
<glyph unicode=" " horiz-adv-x="234" />
<glyph unicode="!" horiz-adv-x="319" d="M83 239L149 700H322L232 239H83ZM126 -16Q99 -16 78 -2T47 35T41 86Q46 119 74 143T135 168Q163 168 184 154T215 117T221 66Q214 33 187 9T126 -16Z" />
<glyph unicode="&quot;" horiz-adv-x="454" d="M111 450L138 716H284L223 450H111ZM299 450L326 716H472L411 450H299Z" />
<glyph unicode="#" horiz-adv-x="633" d="M269 0L496 700H610L383 0H269ZM-3 175L31 284H594L560 175H-3ZM59 0L286 700H400L173 0H59ZM64 390L101 500H665L627 390H64Z" />
<glyph unicode="$" horiz-adv-x="551" d="M254 24Q190 24 138 46T56 103T24 178L172 211Q177 185 196 168T249 150Q289 149 320 170T357 223Q361 242 349 256T305 279L219 301Q174 314 143 339T98 404T92 493Q107 580 172 628T342 676Q404 676 448 659T520 608T559
525L413 491Q410 514 392 532T341 550Q300 550 273 530T239 475Q236 456 247 444T287 425L373 402Q446 382 482 328T507 205Q497 148 465 108T379 46T254 24ZM161 -103L309 780H436L288 -103H161Z" />
<glyph unicode="%" horiz-adv-x="825" d="M42 0L656 700H810L193 0H42ZM232 360Q182 360 146 383T95 449T87 546Q95 595 121 632T186 691T271 713Q322 713 357 689T409 623T416 527Q408 478 382 440T317 381T232 360ZM228 459Q259 459 283 484T314 546Q319 575
309 594T275 613Q244 613 219 589T189 527Q184 497 194 478T228 459ZM587 -13Q536 -13 500 11T449 77T442 173Q450 223 476 260T541 319T625 340Q677 340 712 317T763 251T770 154Q762 106 736 68T672 9T587 -13ZM583 87Q614 87 638 111T669 173Q674 203 664 222T630
241Q598 241 574 216T543 154Q539 125 549 106T583 87Z" />
<glyph unicode="&amp;" horiz-adv-x="648" d="M218 -13Q152 -13 106 13T38 83T25 186Q33 233 66 275T149 350L318 453Q356 476 382 501T409 554Q409 572 396 581T362 591Q331 591 307 575T278 531Q274 512 284 495T308 454L419 293L615 0H441L306 205L187 389Q163
427 150 454T132 505T132 552Q140 599 171 635T251 692T353 713Q418 713 465 690T535 624T548 527Q542 488 517 454T444 385T325 305L245 256Q231 247 218 235T196 206T183 171Q179 148 192 133T230 117Q270 117 312 129T393 164T458 222T492 303L633 295Q618 205
561 136T414 27T218 -13Z" />
<glyph unicode="&apos;" horiz-adv-x="266" d="M111 450L138 716H284L223 450H111Z" />
<glyph unicode="(" horiz-adv-x="401" d="M157 -100Q120 -38 94 34T58 188T63 360Q77 444 110 521T192 669T296 800H459Q401 735 350 661T263 507T211 340Q191 222 218 109T297 -100H157Z" />
<glyph unicode=")" horiz-adv-x="400" d="M277 800Q314 739 341 666T377 512T372 340Q358 257 324 179T243 31T138 -100H-25Q33 -34 84 39T172 193T223 360Q243 479 216 592T137 800H277Z" />
<glyph unicode="*" horiz-adv-x="491" d="M256 524L272 716H380L330 524H256ZM300 489L289 559L475 634L492 532L300 489ZM335 339L262 504L324 547L430 402L335 339ZM197 337L116 400L264 546L321 503L197 337ZM277 489L94 532L143 635L311 559L277 489Z" />
<glyph unicode="+" horiz-adv-x="636" d="M226 65L303 531H427L349 65H226ZM82 236L104 360H570L548 236H82Z" />
<glyph unicode="," horiz-adv-x="274" d="M-38 -114L67 134H229L80 -114H-38Z" />
<glyph unicode="-" horiz-adv-x="404" d="M49 232L71 364H371L349 232H49Z" />
<glyph unicode="." horiz-adv-x="267" d="M100 -15Q73 -15 52 -1T21 36T15 86Q20 120 48 144T109 168Q137 168 158 155T189 118T195 67Q189 34 162 10T100 -15Z" />
<glyph unicode="/" horiz-adv-x="455" d="M-41 -84L374 747H523L110 -84H-41Z" />
<glyph unicode="0" horiz-adv-x="653" d="M309 -12Q237 -12 183 17T94 99T49 221T50 371Q67 473 114 549T231 669T381 712Q452 712 505 683T593 601T638 479T637 329Q621 231 574 154T457 33T309 -12ZM307 135Q354 136 390 163T449 238T482 343Q492 402 483 453T447
536T373 568Q335 568 300 541T240 467T205 357Q195 295 204 246T240 167T307 135Z" />
<glyph unicode="1" horiz-adv-x="431" d="M148 0L250 614L280 700H418L300 0H148ZM80 461L104 605Q130 603 162 617T225 654T280 700L370 600Q302 536 230 495T80 461Z" />
<glyph unicode="2" horiz-adv-x="589" d="M168 16L27 120Q32 151 56 186T120 257T211 321L310 381Q333 395 358 414T402 456T422 503Q423 531 403 549T346 568Q318 568 295 556T256 525T229 484L67 520Q85 572 125 616T222 686T350 713Q434 713 489 683T569 601T582
481Q572 415 528 365T413 273L327 220Q295 201 261 174T202 108T168 16ZM7 0L27 120L150 141H533L510 0H7Z" />
<glyph unicode="3" horiz-adv-x="561" d="M252 -12Q183 -12 131 9T48 70T15 165L170 193Q173 182 179 166T199 139T244 127Q279 127 304 140T345 175T361 224Q363 242 353 257T319 283T252 293H195L213 397H253Q311 397 361 382T449 337T504 268T514 178Q504 117
465 75T369 10T252 -12ZM200 326L217 423H262Q321 423 358 444T399 512Q401 536 382 554T332 573Q303 573 275 557T227 498L83 543Q104 600 146 637T240 693T345 712Q414 712 466 686T543 615T558 508Q550 460 521 426T449 370T354 337T251 326H200Z" />
<glyph unicode="4" horiz-adv-x="640" d="M128 192L19 252L402 700L479 610L128 192ZM-3 123L19 252L107 260H612L589 123H-3ZM304 0L408 615L402 700H572L455 0H304Z" />
<glyph unicode="5" horiz-adv-x="583" d="M260 -12Q206 -12 154 7T66 61T20 146L174 174Q184 148 206 138T253 127Q285 127 311 140T356 178T380 234Q386 272 367 297T306 323Q274 323 249 308T209 275L67 311L178 700H584L560 554H181L178 695H338L209 293L132
315Q142 332 163 354T215 396T285 430T371 443Q428 442 471 414T535 337T545 224Q533 154 493 101T393 18T260 -12Z" />
<glyph unicode="6" horiz-adv-x="586" d="M265 -12Q194 -12 146 13T72 83T40 189T45 320Q58 395 84 465T153 591T255 679T394 712Q455 712 507 695T598 647L508 535Q480 555 448 563T393 572Q323 572 269 510T195 314L164 341Q196 394 245 423T352 453Q414 453
458 427T528 354T553 250Q553 194 532 146T471 62T380 8T265 -12ZM272 123Q308 123 335 139T378 185T394 249Q394 283 373 303T318 324Q284 324 257 309T213 265T194 202Q192 167 213 145T272 123Z" />
<glyph unicode="7" horiz-adv-x="564" d="M55 0L409 558L591 584L237 0H55ZM80 552L104 700H609L591 584L413 552H80Z" />
<glyph unicode="8" horiz-adv-x="611" d="M330 337Q248 337 195 362T118 430T104 532Q113 585 147 626T238 689T371 712Q453 712 507 687T584 616T598 512Q589 460 555 421T464 359T330 337ZM326 420Q359 420 384 433T425 469T441 521Q443 549 422 566T367 584Q335
584 310 572T271 536T254 483Q252 455 272 438T326 420ZM271 -12Q180 -12 122 14T40 86T26 192Q37 252 73 297T170 368T318 394Q409 394 467 366T549 288T562 172Q553 117 517 76T419 11T271 -12ZM276 121Q313 121 341 134T386 171T405 225Q407 258 383 277T319
297Q284 297 255 284T209 246T191 190Q189 160 212 141T276 121Z" />
<glyph unicode="9" horiz-adv-x="586" d="M354 711Q426 711 473 686T547 616T579 510T574 379Q561 304 535 234T466 109T364 20T225 -13Q164 -13 113 4T21 52L111 164Q139 144 171 136T226 128Q296 128 350 190T425 385L456 358Q424 306 376 276T267 246Q206 246
161 273T92 346T67 449Q67 506 88 554T148 637T240 691T354 711ZM347 576Q311 576 284 560T241 515T225 450Q225 417 246 396T301 375Q336 375 363 390T407 434T425 497Q428 533 406 554T347 576Z" />
<glyph unicode=":" horiz-adv-x="324" d="M184 317Q156 317 135 331T104 368T98 418Q104 452 132 476T193 500Q221 500 241 487T272 450T278 399Q272 366 245 342T184 317ZM130 -1Q103 -1 82 12T51 49T45 100Q51 134 79 158T140 182Q167 182 188 168T219 131T225
81Q220 48 192 24T130 -1Z" />
<glyph unicode=";" horiz-adv-x="326" d="M183 314Q156 314 135 328T104 365T98 415Q103 449 131 473T192 497Q220 497 241 484T272 447T278 396Q272 363 245 339T183 314ZM-30 -114L75 134H237L88 -114H-30Z" />
<glyph unicode="&lt;" horiz-adv-x="636" d="M557 527L532 380L122 239L140 356L557 527ZM140 355L502 200L480 70L121 238L140 355Z" />
<glyph unicode="=" horiz-adv-x="636" d="M132 336L153 459H553L532 336H132ZM99 136L120 259H520L499 136H99Z" />
<glyph unicode="&gt;" horiz-adv-x="636" d="M95 69L120 216L530 357L512 240L95 69ZM512 241L150 396L172 526L531 358L512 241Z" />
<glyph unicode="?" horiz-adv-x="517" d="M161 288L173 382L252 390Q283 392 309 404T355 438T379 494Q385 529 365 550T306 572Q271 572 244 555T205 514L69 561Q100 633 162 672T308 712Q382 712 435 682T512 598T524 475Q515 418 480 376T390 311T266 288H161ZM201
-15Q163 -15 136 12T110 78Q111 115 138 141T202 168Q240 168 267 141T293 76Q293 39 266 12T201 -15ZM149 207L169 346H324L296 207H149Z" />
<glyph unicode="@" horiz-adv-x="993" d="M450 -209Q341 -209 256 -175T115 -77T37 73T32 262Q49 361 97 444T219 588T386 682T584 715Q684 715 762 681T890 583T960 435T962 248L855 256Q873 361 845 440T750 563T587 607Q502 607 427 581T291 505T191 390T138
242Q121 142 154 64T263 -57T447 -101Q485 -101 525 -89T591 -60L648 -153Q602 -178 546 -193T450 -209ZM424 14Q363 14 321 46T260 134T254 262Q266 329 298 380T378 460T483 489Q548 489 593 458T659 371T667 243Q656 176 621 125T536 44T424 14ZM475 141Q506
141 532 156T578 199T603 262Q610 307 589 334T526 362Q494 362 467 347T420 305T395 243Q387 198 409 170T475 141ZM718 -15Q674 -15 641 2T591 51T581 120H698Q694 95 701 88T724 81Q754 81 780 104T827 167T855 256L962 248Q949 170 914 111T828 18T718 -15ZM580
116L633 479H758L698 120L580 116Z" />
<glyph unicode="A" horiz-adv-x="733" d="M-34 0L355 700H525L148 0H-34ZM521 0L375 700H528L683 0H521ZM118 133L141 275H602L579 133H118Z" />
<glyph unicode="B" horiz-adv-x="613" d="M78 0L102 142H305Q351 142 380 165T413 233Q415 262 395 279T336 296H127L148 418L263 414Q364 414 439 393T550 323T574 194Q558 100 487 50T309 0H78ZM26 0L143 700H300L183 0H26ZM119 286L143 425H332Q382 425 409
447T438 511Q440 543 421 558T361 574H168L189 698L382 701Q455 702 507 678T584 607T597 487Q588 437 543 395T425 326T260 300L119 286Z" />
<glyph unicode="C" horiz-adv-x="729" d="M351 -12Q244 -12 170 36T64 167T49 360Q66 463 122 542T264 667T450 712Q529 712 590 685T691 608T745 496L590 453Q580 488 560 513T512 551T447 564Q389 564 339 536T255 457T210 340Q200 280 215 234T266 161T357
135Q400 135 436 151T502 195T555 259L700 198Q665 135 611 88T491 14T351 -12Z" />
<glyph unicode="D" horiz-adv-x="705" d="M255 0L275 152Q321 152 363 167T440 210T498 277T529 360Q538 415 518 457T454 523T347 548L367 700Q478 700 556 654T672 527T691 340Q678 265 640 203T545 96T413 25T255 0ZM110 0L135 152H280L255 0H110ZM26 0L143
700H304L187 0H26ZM202 548L227 700H372L347 548H202Z" />
<glyph unicode="E" horiz-adv-x="587" d="M26 0L143 700H304L187 0H26ZM143 0L168 148H513L487 0H143ZM190 281L214 424H505L481 281H190ZM235 552L260 700H599L575 552H235Z" />
<glyph unicode="F" horiz-adv-x="559" d="M26 0L143 700H304L187 0H26ZM196 270L221 417H502L477 270H196ZM244 552L268 700H607L583 552H244Z" />
<glyph unicode="G" horiz-adv-x="735" d="M376 -12Q294 -12 228 19T118 103T55 222T49 359Q63 439 96 504T181 615T304 687T464 712Q534 712 586 692T675 636T732 556L585 485Q573 510 549 527T496 554T440 564Q387 564 340 541T258 470T212 349Q206 310 215 273T247
204T307 154T391 136Q440 136 476 153T534 202T565 281L723 294Q706 192 665 124T553 22T376 -12ZM403 260L424 384H738L723 294L628 260H403Z" />
<glyph unicode="H" horiz-adv-x="749" d="M26 0L143 700H304L187 0H26ZM478 0L595 700H756L639 0H478ZM188 283L213 431H637L612 283H188Z" />
<glyph unicode="I" horiz-adv-x="297" d="M26 0L143 700H304L187 0H26Z" />
<glyph unicode="J" horiz-adv-x="570" d="M214 -15Q154 -15 112 4T43 55T6 120T-5 183L137 221Q142 203 150 183T174 148T219 133Q253 133 280 145T326 184T352 257L426 700H587L504 205Q495 151 470 110T407 42T320 0T214 -15Z" />
<glyph unicode="K" horiz-adv-x="692" d="M146 148L170 363L536 700H751L146 148ZM26 0L143 700H303L186 0H26ZM444 0L227 356L358 451L639 0H444Z" />
<glyph unicode="L" horiz-adv-x="545" d="M26 0L143 700H304L187 0H26ZM122 0L147 148H510L485 0H122Z" />
<glyph unicode="M" horiz-adv-x="865" d="M26 0L143 700H304L187 0H26ZM420 154L144 677L223 696L318 700L522 302L420 154ZM420 154L358 302L691 700L790 696L865 679L420 154ZM592 0L709 700H870L753 0H592Z" />
<glyph unicode="N" horiz-adv-x="773" d="M502 0L171 612L313 700L643 91L502 0ZM26 0L143 700H313L280 554L187 0H26ZM502 0L619 700H780L663 0H502Z" />
<glyph unicode="O" horiz-adv-x="794" d="M387 -12Q304 -12 236 16T121 96T56 218T51 375Q68 476 123 551T260 669T442 712Q525 712 592 684T706 604T772 481T776 324Q760 224 705 149T568 31T387 -12ZM393 136Q449 136 495 161T572 232T613 338Q624 404 605 455T541
535T436 564Q380 564 334 539T256 467T214 360Q203 295 223 244T288 165T393 136Z" />
<glyph unicode="P" horiz-adv-x="614" d="M203 221L228 369H359Q395 369 420 384T460 423T477 468Q479 506 458 529T395 553H259L283 700L413 701Q490 702 545 670T625 582T638 452Q626 384 586 332T485 251T349 221H203ZM26 0L143 700H304L187 0H26Z" />
<glyph unicode="Q" horiz-adv-x="795" d="M387 -12Q304 -12 236 16T121 96T56 218T51 375Q68 476 123 551T260 669T442 712Q525 712 592 684T706 604T772 481T776 324Q760 224 705 149T568 31T387 -12ZM604 -43L384 223L498 320L717 55L604 -43ZM393 136Q449 136
495 161T572 232T613 338Q624 404 605 455T541 535T436 564Q380 564 334 539T256 467T214 360Q203 295 223 244T288 165T393 136Z" />
<glyph unicode="R" horiz-adv-x="654" d="M205 235L230 383H356Q388 383 414 394T457 426T474 479Q476 512 454 532T391 553H259L283 700L413 701Q490 702 545 671T625 584T639 459Q628 393 587 343T483 264T343 235H205ZM26 0L143 700H304L187 0H26ZM408 0L295
278L427 367L588 0H408Z" />
<glyph unicode="S" horiz-adv-x="603" d="M274 -15Q221 -15 175 -1T95 37T41 92T20 156L183 192Q189 163 211 145T271 125Q316 124 349 147T385 205Q387 231 370 247T324 271L237 293Q187 307 152 335T102 407T96 504Q112 601 184 655T375 709Q444 709 493 690T572
633T615 541L453 503Q449 530 427 550T365 570Q318 570 289 550T257 489Q255 468 271 452T319 427L408 404Q461 390 496 358T546 282T552 186Q542 123 506 78T411 9T274 -15Z" />
<glyph unicode="T" horiz-adv-x="599" d="M178 0L286 642H446L338 0H178ZM66 552L91 700H659L634 552H66Z" />
<glyph unicode="U" horiz-adv-x="702" d="M315 -13Q223 -13 161 21T73 118T61 266H222Q215 225 225 196T259 152T321 136Q365 136 400 152T457 198T486 266H647Q632 178 588 116T475 20T315 -13ZM61 266L133 700H294L222 266H61ZM486 266L558 700H719L647 266H486Z" />
<glyph unicode="V" horiz-adv-x="736" d="M254 0L627 700H804L414 0H254ZM240 0L83 700H252L392 0H240Z" />
<glyph unicode="W" horiz-adv-x="996" d="M586 0L897 700H1064L742 0H586ZM170 0L83 700H244L320 0H170ZM190 0L491 700H637L337 0H190ZM574 0L509 700H651L725 0H574Z" />
<glyph unicode="X" horiz-adv-x="709" d="M-34 0L299 383L574 700H770L447 338L165 0H-34ZM466 0L301 338L94 700H282L447 383L655 0H466Z" />
<glyph unicode="Y" horiz-adv-x="666" d="M417 288L263 320L551 700H738L417 288ZM211 0L267 336H428L372 0H211ZM267 288L84 700H262L423 320L267 288Z" />
<glyph unicode="Z" horiz-adv-x="628" d="M17 152L439 555L644 548L229 152H17ZM-8 0L17 152H574L549 0H-8ZM87 548L112 700H669L644 548H87Z" />
<glyph unicode="[" horiz-adv-x="353" d="M9 -100L160 800H397L373 660H269L165 40H269L246 -100H9Z" />
<glyph unicode="\" horiz-adv-x="733" d="M661 -84H509L96 747H246L661 -84Z" />
<glyph unicode="]" horiz-adv-x="353" d="M377 800L226 -100H-11L13 40H117L220 660H116L140 800H377Z" />
<glyph unicode="^" horiz-adv-x="595" d="M93 373L303 700H444L232 373H93ZM414 373L306 700H442L544 373H414Z" />
<glyph unicode="_" horiz-adv-x="432" d="M-48 -131L-26 0H374L352 -131H-48Z" />
<glyph unicode="`" horiz-adv-x="32" d="M411 558L308 701H473L558 558H411Z" />
<glyph unicode="a" horiz-adv-x="601" d="M360 0L368 93L436 500H592L508 0H360ZM225 -12Q154 -12 105 21T36 113T27 253Q35 311 55 358T108 440T183 493T277 512Q348 512 387 478T440 385T442 248Q434 186 416 138T369 56T305 5T225 -12ZM278 132Q302 132 322
141T357 168T382 207T395 255Q401 305 376 336T307 368Q283 368 263 358T226 332T201 293T188 246Q183 196 208 164T278 132Z" />
<glyph unicode="b" horiz-adv-x="602" d="M9 0L126 700H282L181 93L157 0H9ZM377 512Q449 512 497 479T566 387T575 247Q567 189 547 142T494 60T418 7T325 -12Q255 -12 215 22T162 115T160 252Q168 314 186 362T233 444T297 495T377 512ZM324 368Q300 368 280
359T244 332T219 293T207 245Q201 195 226 164T295 132Q318 132 338 142T375 168T401 207T413 254Q418 304 393 336T324 368Z" />
<glyph unicode="c" horiz-adv-x="554" d="M265 -12Q207 -12 160 9T79 67T32 154T27 260Q40 335 77 391T177 480T327 512Q378 512 424 492T503 437T546 356L394 313Q383 340 362 353T307 367Q274 367 249 352T207 311T186 252Q180 218 190 191T224 149T277 133Q313
133 341 150T383 192L520 136Q480 62 414 25T265 -12Z" />
<glyph unicode="d" horiz-adv-x="601" d="M360 0L368 93L469 700H625L508 0H360ZM225 -12Q154 -12 105 21T36 113T27 253Q35 311 55 358T108 440T183 493T277 512Q348 512 387 478T440 385T442 248Q434 186 416 138T369 56T305 5T225 -12ZM278 132Q302 132 322
141T357 168T382 207T395 255Q401 305 376 336T307 368Q283 368 263 358T226 332T201 293T188 246Q183 196 208 164T278 132Z" />
<glyph unicode="e" horiz-adv-x="563" d="M255 -12Q176 -6 121 31T40 129T28 268Q41 346 84 402T193 488T336 511Q412 506 464 471T537 370T541 213H389Q398 268 396 309T375 374T315 401Q279 403 253 385T209 332T183 248Q176 200 185 170T217 125T269 109Q307
106 337 123T382 167L511 110Q485 62 443 34T351 -4T255 -12ZM125 213L128 312H474L472 213H125Z" />
<glyph unicode="f" horiz-adv-x="404" d="M59 0L151 547Q164 629 214 675T353 722Q387 722 421 711T479 684L404 574Q393 582 382 585T360 589Q336 589 322 573T302 517L215 0H59ZM43 377L64 500H412L391 377H43Z" />
<glyph unicode="g" horiz-adv-x="601" d="M216 -212Q154 -212 108 -203T31 -179T-20 -149L57 -32Q71 -40 91 -50T143 -68T218 -76Q272 -76 311 -45T361 51L436 500H592L518 57Q504 -27 468 -87T370 -180T216 -212ZM227 18Q154 18 105 50T36 141T30 279Q43 352
77 404T163 484T279 512Q350 512 390 479T441 387T439 252Q426 179 398 127T327 47T227 18ZM280 148Q309 148 333 162T373 200T395 256Q401 290 392 316T361 357T308 372Q279 372 255 359T214 321T191 265Q186 232 195 205T227 163T280 148Z" />
<glyph unicode="h" horiz-adv-x="574" d="M11 0L127 703H283L167 0H11ZM331 0L374 256L535 286L487 0H331ZM374 256Q381 296 376 319T357 354T318 366Q273 367 246 341T209 264L163 265Q176 344 208 399T287 483T389 512Q481 512 518 457T535 286L374 256Z" />
<glyph unicode="i" horiz-adv-x="276" d="M18 0L102 500H258L174 0H18ZM206 564Q171 564 145 590T118 652Q118 689 144 714T206 740Q242 740 268 715T294 652Q294 617 268 591T206 564Z" />
<glyph unicode="j" horiz-adv-x="286" d="M-28 -215Q-60 -215 -88 -206T-138 -182L-54 -53Q-31 -70 -11 -70Q29 -70 37 -18L124 500H280L191 -30Q177 -118 120 -166T-28 -215ZM228 564Q193 564 167 590T140 652Q140 689 166 714T228 740Q264 740 290 715T316 652Q316
617 290 591T228 564Z" />
<glyph unicode="k" horiz-adv-x="562" d="M9 0L126 700H284L167 0H9ZM180 111L102 219L399 500H586L180 111ZM334 0L214 221L330 328L511 0H334Z" />
<glyph unicode="l" horiz-adv-x="258" d="M9 0L126 700H282L165 0H9Z" />
<glyph unicode="m" horiz-adv-x="895" d="M9 0L93 500H240L233 408L165 0H9ZM331 0L374 256L535 286L487 0H331ZM653 0L696 256L857 286L809 0H653ZM373 256Q380 296 375 319T356 354T317 366Q272 367 245 341T209 264L162 265Q175 344 208 399T287 483T388 512Q480
512 517 457T534 286L373 256ZM695 256Q702 296 697 319T677 354T639 366Q594 367 567 341T530 264L483 265Q497 344 529 399T608 483T709 512Q801 512 838 457T856 286L695 256Z" />
<glyph unicode="n" horiz-adv-x="573" d="M9 0L93 500H240L233 408L165 0H9ZM330 0L373 256L534 286L486 0H330ZM373 256Q380 296 375 319T356 354T317 366Q272 367 245 341T209 264L162 265Q175 344 208 399T287 483T388 512Q480 512 517 457T534 286L373 256Z" />
<glyph unicode="o" horiz-adv-x="587" d="M277 -12Q195 -12 134 23T44 122T28 268Q41 341 81 396T180 481T311 512Q394 512 455 477T544 378T559 232Q547 159 507 104T408 19T277 -12ZM281 132Q310 132 335 146T377 185T400 245Q406 283 396 310T362 353T307 368Q278
368 253 354T211 315T187 255Q181 217 192 190T226 147T281 132Z" />
<glyph unicode="p" horiz-adv-x="607" d="M-19 -200L98 500H245L238 408L137 -200H-19ZM382 512Q454 512 502 479T572 387T581 247Q573 189 552 142T499 60T424 7T330 -12Q260 -12 220 22T167 115T166 252Q174 314 192 362T239 444T303 495T382 512ZM329 368Q305
368 285 359T250 332T225 293T213 245Q207 195 232 164T300 132Q324 132 344 142T381 168T407 207T419 254Q424 304 399 336T329 368Z" />
<glyph unicode="q" horiz-adv-x="607" d="M320 -200L421 407L446 500H593L476 -200H320ZM225 -12Q154 -12 105 21T36 113T27 253Q35 311 55 358T108 440T183 493T277 512Q348 512 387 478T440 385T442 248Q434 186 416 138T369 56T305 5T225 -12ZM278 132Q302
132 322 141T357 168T382 207T395 255Q401 305 376 336T307 368Q283 368 263 358T226 332T201 293T188 246Q183 196 208 164T278 132Z" />
<glyph unicode="r" horiz-adv-x="398" d="M9 0L93 500H249L165 0H9ZM167 256Q181 337 222 392T317 474T426 502L401 350Q355 350 313 340T242 309T208 256H167Z" />
<glyph unicode="s" horiz-adv-x="486" d="M193 -12Q141 -12 101 2T35 43T4 104L138 152Q146 123 167 113T209 102Q224 102 238 107T261 122T270 147Q270 163 256 173T212 192L171 202Q115 217 87 250T58 328Q58 385 87 426T169 489T290 512Q375 512 417 481T472
399L342 353Q337 377 320 387T273 397Q250 397 232 385T214 353Q214 341 228 331T273 313L313 303Q374 288 407 253T441 165Q441 107 406 67T314 8T193 -12Z" />
<glyph unicode="t" horiz-adv-x="416" d="M231 -12Q143 -12 107 30T84 152L168 656H324L246 191Q241 160 249 147T280 133Q289 133 302 138T327 149L362 34Q334 15 299 2T231 -12ZM42 369L64 500H412L390 369H42Z" />
<glyph unicode="u" horiz-adv-x="574" d="M334 0L341 92L409 500H565L481 0H334ZM39 214L87 500H243L200 244L39 214ZM200 244Q193 205 198 181T218 146T256 134Q301 134 328 159T365 236L411 235Q398 156 366 101T287 17T185 -12Q94 -12 57 44T39 214L200 244Z" />
<glyph unicode="v" horiz-adv-x="573" d="M181 0L448 500H609L323 0H181ZM167 0L48 500H209L308 0H167Z" />
<glyph unicode="w" horiz-adv-x="867" d="M142 0L56 500H215L286 0H142ZM159 0L399 500H532L295 0H159ZM488 0L420 500H552L624 0H488ZM488 0L736 500H895L641 0H488Z" />
<glyph unicode="x" horiz-adv-x="564" d="M-32 0L222 285L400 500H584L334 217L154 0H-32ZM327 0L223 217L65 500H249L356 285L512 0H327Z" />
<glyph unicode="y" horiz-adv-x="599" d="M100 -212Q69 -212 35 -200T-21 -173L58 -48Q83 -67 106 -67Q125 -67 142 -58T171 -27L254 112L466 500H639L329 -31Q298 -84 268 -125T198 -189T100 -212ZM194 0L44 500H216L309 112L342 0H194Z" />
<glyph unicode="z" horiz-adv-x="471" d="M84 15L3 110L391 489L468 390L84 15ZM-16 0L3 110L96 126H424L403 0H-16ZM47 373L68 500H486L468 390L370 373H47Z" />
<glyph unicode="{" horiz-adv-x="399" d="M68 339L79 407Q114 407 136 417T170 452T190 522Q204 606 221 660T266 745T334 788T438 800L418 678Q391 678 374 663T344 609T319 503Q311 453 296 421T254 371T182 346T68 339ZM288 -100Q209 -100 169 -75T123 15T135
198Q143 237 140 257T118 285T61 293L72 361Q160 361 206 345T265 290T266 177Q256 115 255 81T266 35T308 22L288 -100Z" />
<glyph unicode="|" horiz-adv-x="256" d="M-11 -220L158 790H278L109 -220H-11Z" />
<glyph unicode="}" horiz-adv-x="399" d="M364 361L354 293Q319 293 298 283T263 248T243 178Q228 94 211 40T166 -45T98 -88T-5 -100L14 22Q42 22 59 37T89 91T113 197Q121 247 136 279T178 329T251 354T364 361ZM145 800Q224 800 263 775T310 685T297 502Q291
463 294 443T315 415T372 407L361 339Q273 339 227 355T168 411T166 523Q177 585 178 619T167 665T124 678L145 800Z" />
<glyph unicode="~" horiz-adv-x="712" d="M463 163Q414 163 371 185T307 259Q297 282 284 300T242 318Q220 318 202 301T175 249H52Q63 314 91 363T165 441T271 470Q330 470 368 445T420 390Q428 375 436 358T458 328T490 315Q518 315 534 334T559 384H682Q671
320 642 270T569 192T463 163Z" />
<glyph unicode="&#xa0;" horiz-adv-x="234" />
<glyph unicode="&#xa1;" horiz-adv-x="303" d="M236 257L170 -204H-3L87 257H236ZM193 512Q221 512 241 498T273 461T278 411Q273 378 246 354T184 329Q156 329 136 342T105 379T99 430Q105 464 132 488T193 512Z" />
<glyph unicode="&#xa2;" horiz-adv-x="554" d="M214 0L331 700H409L291 0H214ZM283 98Q225 98 178 119T97 177T50 264T45 370Q58 445 95 501T195 590T345 622Q396 622 442 602T521 547T564 466L412 423Q401 450 380 463T325 477Q292 477 267 462T225 421T204 362Q198
328 208 301T242 259T295 243Q331 243 359 260T401 302L538 246Q498 172 432 135T283 98Z" />
<glyph unicode="&#xa3;" horiz-adv-x="604" d="M103 212L150 489Q163 565 199 614T289 688T410 712Q479 712 528 688T600 615T611 492L457 512Q463 547 449 563T407 579Q382 579 361 567T325 533T305 480L260 215L103 212ZM35 70L36 148Q57 148 78 167T103 212L260
215Q253 173 221 141T141 89T35 70ZM0 0L24 148H553L528 0H0ZM47 276L67 400H498L477 276H47Z" />
<glyph unicode="&#xa4;" horiz-adv-x="618" d="M304 143Q238 143 192 170T125 247T115 360Q125 417 158 461T241 531T350 556Q416 556 462 529T528 453T539 340Q529 282 496 238T412 168T304 143ZM304 273Q346 273 373 300T403 368Q405 394 390 410T350 426Q309
426 281 400T251 331Q250 306 264 290T304 273ZM130 105L55 191L203 321L280 237L130 105ZM229 373L108 510L204 595L326 457L229 373ZM448 105L335 235L433 319L544 191L448 105ZM443 381L366 465L523 595L598 510L443 381Z" />
<glyph unicode="&#xa5;" horiz-adv-x="621" d="M392 289L246 320L504 702H691L392 289ZM186 0L242 336H403L347 0H186ZM71 170L84 254H532L519 170H71ZM90 286L104 370H552L538 286H90ZM242 289L81 702H259L390 320L242 289Z" />
<glyph unicode="&#xa6;" horiz-adv-x="320" d="M117 350L190 790H310L237 350H117ZM21 -220L95 220H215L141 -220H21Z" />
<glyph unicode="&#xa7;" horiz-adv-x="503" d="M209 -91Q152 -91 108 -72T37 -23T10 41L126 68Q130 42 149 27T199 10Q240 9 270 28T306 81Q309 99 296 112T253 134L181 153Q124 170 91 211T69 317Q81 391 137 432T283 473Q337 473 374 457T434 412T465 343L355
317Q351 341 333 356T283 372Q244 372 218 353T185 299Q183 282 194 271T232 253L305 233Q369 215 401 169T424 63Q412 -8 357 -49T209 -91ZM251 149Q199 149 159 168T95 219T70 286L167 307Q171 290 184 278T215 258T245 250Q283 250 312 268T347 319Q350 338
338 351T295 373L223 393Q165 409 133 451T110 557Q123 630 178 671T324 712Q379 712 417 696T479 652T511 584L396 556Q393 580 376 595T327 611Q287 611 260 592T226 538Q224 521 236 510T274 491L347 472Q411 456 443 409T465 301Q453 231 398 190T251 149Z"
/>
<glyph unicode="&#xa8;" d="M187 581Q155 581 132 604T109 660Q109 692 132 715T187 738Q219 738 242 715T266 660Q266 628 243 605T187 581ZM452 581Q420 581 397 604T373 660Q373 692 396 715T452 738Q484 738 507 715T530 660Q530 628 507 605T452 581Z" />
<glyph unicode="&#xa9;" horiz-adv-x="783" d="M384 152Q324 152 283 178T223 251T215 357Q224 413 255 456T334 523T435 547Q506 547 549 512T605 420L500 395Q493 421 478 435T436 450Q409 450 385 436T345 398T322 342Q316 302 334 276T387 250Q422 250 443
267T483 310L582 272Q553 218 502 185T384 152ZM359 -11Q278 -11 215 16T109 94T51 211T49 360Q61 436 98 500T190 612T313 686T459 712Q539 712 602 685T707 607T765 489T768 340Q755 264 719 200T627 89T504 15T359 -11ZM354 88Q432 88 498 123T610 219T668 360Q681
434 658 491T585 580T463 613Q385 613 319 578T207 482T149 340Q136 267 158 210T231 120T354 88Z" />
<glyph unicode="&#xaa;" horiz-adv-x="380" d="M266 400L271 456L312 700H418L368 400H266ZM184 393Q135 393 101 424T66 509Q66 564 83 609T137 680T228 707Q275 707 297 680T319 604Q319 572 313 536T291 467T250 414T184 393ZM223 492Q242 492 256 502T279
528T287 562Q287 583 275 595T242 608Q225 608 211 598T189 572T181 539Q181 519 192 506T223 492Z" />
<glyph unicode="&#xab;" horiz-adv-x="672" d="M308 298L486 500H667L495 298H308ZM423 96L312 298H491L595 96H423ZM54 298L232 500H413L241 298H54ZM169 96L58 298H237L341 96H169Z" />
<glyph unicode="&#xac;" horiz-adv-x="472" d="M50 272L71 398H439L418 272H50ZM271 148L313 398H439L397 148H271Z" />
<glyph unicode="&#xad;" horiz-adv-x="404" d="M49 232L71 364H371L349 232H49Z" />
<glyph unicode="&#xae;" horiz-adv-x="612" d="M300 150Q239 150 190 172T107 235T60 327T57 441Q66 498 95 547T168 634T263 691T372 712Q433 712 482 690T565 628T611 535T615 422Q606 364 577 315T505 229T410 171T300 150ZM300 218Q362 218 414 245T501 321T546
433Q557 498 540 545T479 618T372 644Q311 644 259 617T172 542T126 430Q115 365 133 318T193 244T300 218ZM206 294L255 585L367 586Q416 586 443 556T463 478Q459 453 444 433T401 400L443 294H366L327 389H293L277 294H206ZM304 455H342Q358 455 373 467T393
497Q395 507 388 513T363 520H315L304 455Z" />
<glyph unicode="&#xaf;" horiz-adv-x="332" d="M51 555L73 687H405L383 555H51Z" />
<glyph unicode="&#xb0;" horiz-adv-x="378" d="M217 413Q178 413 148 430T102 478T86 545Q87 595 110 632T174 690T266 712Q306 712 336 695T382 648T398 581Q397 533 373 495T309 435T217 413ZM232 510Q257 510 274 527T292 569Q293 589 282 602T252 615Q228
615 211 599T192 557Q191 537 202 524T232 510Z" />
<glyph unicode="&#xb1;" horiz-adv-x="636" d="M243 170L314 596H438L366 170H243ZM98 325L117 441H583L564 325H98ZM47 24L65 130H531L513 24H47Z" />
<glyph unicode="&#xb2;" horiz-adv-x="370" d="M163 384L67 461Q72 489 105 523T184 584L231 611Q255 624 276 642T299 679Q299 692 291 700T263 709Q243 709 226 696T201 663L89 688Q105 736 151 772T264 808Q345 808 382 767T410 665Q403 622 375 592T303 537L264
514Q246 503 225 486T186 445T163 384ZM53 380L67 461L151 478H382L366 380H53Z" />
<glyph unicode="&#xb3;" horiz-adv-x="340" d="M203 373Q136 373 94 403T53 492L161 508Q163 501 165 491T174 475T197 468Q224 468 239 482T256 516Q257 526 247 536T204 547H162L175 617H203Q248 617 287 601T347 554T362 486Q356 449 331 424T273 386T203 373ZM167
572L178 636H211Q240 636 259 647T279 684Q279 694 270 703T248 712Q233 712 217 703T192 665L89 694Q101 733 128 758T189 795T257 807Q300 807 332 791T379 747T389 684Q382 643 353 619T283 583T204 572H167Z" />
<glyph unicode="&#xb4;" horiz-adv-x="480" d="M210 558L326 700H495L361 558H210Z" />
<glyph unicode="&#xb5;" horiz-adv-x="574" d="M-30 -200L87 500H243L175 94H159L110 -200H-30ZM244 -12Q176 -12 145 46T133 218L199 240Q193 201 196 178T213 145T246 134Q295 133 325 161T365 240L410 231Q391 113 349 51T244 -12ZM335 0L341 92L409 500H565L481
0H335Z" />
<glyph unicode="&#xb6;" horiz-adv-x="603" d="M266 221Q191 221 138 253T59 341T47 471Q59 539 98 590T199 671T335 700H385L305 221H266ZM220 -84L351 700H458L327 -84H220ZM373 -84L504 700H610L479 -84H373ZM425 552L449 700H514L490 552H425Z" />
<glyph unicode="&#xb7;" horiz-adv-x="263" d="M142 252Q115 252 94 266T63 303T57 353Q62 387 90 411T151 435Q179 435 200 422T231 385T237 334Q231 301 204 277T142 252Z" />
<glyph unicode="&#xb8;" horiz-adv-x="228" d="M33 -210Q9 -210 -18 -201T-71 -173L-43 -111Q-29 -119 -16 -123T8 -128Q31 -128 45 -120T59 -97Q59 -84 43 -77T-1 -68L45 6L133 3L106 -29Q135 -39 151 -59T167 -104Q167 -154 132 -182T33 -210Z" />
<glyph unicode="&#xb9;" horiz-adv-x="283" d="M138 380L198 741L219 800H313L243 380H138ZM98 645L115 745Q131 743 150 751T188 773T219 800L282 732Q239 691 193 666T98 645Z" />
<glyph unicode="&#xba;" horiz-adv-x="360" d="M216 393Q165 393 129 414T77 473T69 560Q80 625 129 666T245 707Q296 707 331 686T383 627T391 540Q384 497 359 464T298 412T216 393ZM211 493Q237 493 258 511T284 560Q287 581 278 594T250 608Q224 608 203 589T177
540Q173 519 182 506T211 493Z" />
<glyph unicode="&#xbb;" horiz-adv-x="672" d="M381 298L202 96H22L194 298H381ZM265 500L377 298H197L94 500H265ZM634 298L456 96H276L448 298H634ZM519 500L631 298H451L347 500H519Z" />
<glyph unicode="&#xbc;" horiz-adv-x="848" d="M121 280L181 641L202 700H296L226 280H121ZM81 545L98 645Q114 643 133 651T171 673T202 700L265 632Q222 591 176 566T81 545ZM101 0L582 700H689L208 0H101ZM523 115L448 154L675 420L726 359L523 115ZM433 64L448
154L507 159H812L796 64H433ZM619 0L680 363L675 420H794L723 0H619Z" />
<glyph unicode="&#xbd;" horiz-adv-x="877" d="M121 280L181 641L202 700H296L226 280H121ZM81 545L98 645Q114 643 133 651T171 673T202 700L265 632Q222 591 176 566T81 545ZM101 0L582 700H689L208 0H101ZM606 4L510 81Q515 109 548 143T627 204L674 231Q698
244 719 262T742 299Q742 312 734 320T706 329Q686 329 669 316T644 283L532 308Q548 356 594 392T707 428Q788 428 825 387T853 285Q846 242 818 212T746 157L707 134Q689 123 668 106T629 65T606 4ZM496 0L510 81L594 98H825L809 0H496Z" />
<glyph unicode="&#xbe;" horiz-adv-x="905" d="M186 273Q119 273 77 303T36 392L144 408Q146 401 148 391T157 375T180 368Q207 368 222 382T239 416Q240 426 230 436T187 447H145L158 517H186Q231 517 270 501T330 454T345 386Q339 349 314 324T256 286T186 273ZM150
472L161 536H194Q223 536 242 547T262 584Q262 594 253 603T231 612Q216 612 200 603T175 565L72 594Q84 633 111 658T172 695T240 707Q283 707 315 691T362 647T372 584Q365 543 336 519T266 483T187 472H150ZM158 0L639 700H746L265 0H158ZM580 115L505 154L732
420L783 359L580 115ZM490 64L505 154L564 159H869L853 64H490ZM676 0L737 363L732 420H851L780 0H676Z" />
<glyph unicode="&#xbf;" horiz-adv-x="473" d="M330 209L318 115L239 107Q208 105 181 93T136 59T112 3Q107 -31 126 -53T185 -75Q219 -75 246 -58T286 -17L422 -64Q391 -135 329 -175T183 -215Q109 -215 56 -185T-21 -100T-34 23Q-24 80 11 122T101 186T224 209H330ZM290
512Q328 512 354 485T381 420Q380 382 353 356T288 329Q250 329 224 356T198 421Q198 459 225 485T290 512ZM342 290L322 151H167L194 290H342Z" />
<glyph unicode="&#xc0;" horiz-adv-x="733" d="M-34 0L355 700H525L148 0H-34ZM521 0L375 700H528L683 0H521ZM118 133L141 275H602L579 133H118ZM409 752L306 895H471L556 752H409Z" />
<glyph unicode="&#xc1;" horiz-adv-x="733" d="M-34 0L355 700H525L148 0H-34ZM521 0L375 700H528L683 0H521ZM118 133L141 275H602L579 133H118ZM350 752L466 894H635L501 752H350Z" />
<glyph unicode="&#xc2;" horiz-adv-x="733" d="M-34 0L355 700H525L148 0H-34ZM521 0L375 700H528L683 0H521ZM118 133L141 275H602L579 133H118ZM236 763L385 906H534V902L379 763H236ZM511 763L400 902L401 906H535L636 763H511Z" />
<glyph unicode="&#xc3;" horiz-adv-x="733" d="M-34 0L355 700H525L148 0H-34ZM521 0L375 700H528L683 0H521ZM118 133L141 275H602L579 133H118ZM530 736Q493 736 475 747T448 772T433 797T412 808Q400 808 388 801T367 769H268Q288 840 322 872T415 904Q451
904 469 893T495 868T511 843T534 832Q552 832 561 843T576 870H676Q656 808 623 772T530 736Z" />
<glyph unicode="&#xc4;" horiz-adv-x="733" d="M-34 0L355 700H525L148 0H-34ZM521 0L375 700H528L683 0H521ZM118 133L141 275H602L579 133H118ZM334 775Q302 775 279 798T256 854Q256 886 279 909T334 932Q366 932 389 909T413 854Q413 822 390 799T334 775ZM599
775Q567 775 544 798T520 854Q520 886 543 909T599 932Q631 932 654 909T677 854Q677 822 654 799T599 775Z" />
<glyph unicode="&#xc5;" horiz-adv-x="733" d="M-34 0L355 700H525L148 0H-34ZM521 0L375 700H528L683 0H521ZM118 133L141 275H602L579 133H118ZM455 723Q406 723 372 753T337 831Q337 873 356 902T406 948T475 964Q524 964 557 933T592 855Q593 814 573 784T522
739T455 723ZM457 809Q475 809 486 821T498 854Q498 878 472 878Q454 878 443 866T431 833Q431 822 438 816T457 809Z" />
<glyph unicode="&#xc6;" horiz-adv-x="1027" d="M-34 0L465 700H636L152 0H-34ZM175 133L199 275H592L569 133H175ZM583 0L608 148H952L927 0H583ZM466 0L583 700H748L631 0H466ZM630 281L654 424H945L921 281H630ZM450 552L475 700H1039L1014 552H450Z" />
<glyph unicode="&#xc7;" horiz-adv-x="729" d="M351 -12Q244 -12 170 36T64 167T49 360Q66 463 122 542T264 667T450 712Q529 712 590 685T691 608T745 496L590 453Q580 488 560 513T512 551T447 564Q389 564 339 536T255 457T210 340Q200 280 215 234T266 161T357
135Q400 135 436 151T502 195T555 259L700 198Q665 135 611 88T491 14T351 -12ZM270 -210Q246 -210 219 -201T166 -173L194 -111Q208 -119 221 -123T245 -128Q268 -128 282 -120T296 -97Q296 -84 280 -77T236 -68L282 6L370 3L343 -29Q372 -39 388 -59T404 -104Q404
-154 369 -182T270 -210Z" />
<glyph unicode="&#xc8;" horiz-adv-x="587" d="M26 0L143 700H304L187 0H26ZM143 0L168 148H513L487 0H143ZM190 281L214 424H505L481 281H190ZM235 552L260 700H599L575 552H235ZM336 752L233 895H398L483 752H336Z" />
<glyph unicode="&#xc9;" horiz-adv-x="587" d="M26 0L143 700H304L187 0H26ZM143 0L168 148H513L487 0H143ZM190 281L214 424H505L481 281H190ZM235 552L260 700H599L575 552H235ZM277 752L393 894H562L428 752H277Z" />
<glyph unicode="&#xca;" horiz-adv-x="587" d="M26 0L143 700H304L187 0H26ZM143 0L168 148H513L487 0H143ZM190 281L214 424H505L481 281H190ZM235 552L260 700H599L575 552H235ZM163 763L312 906H461V902L306 763H163ZM438 763L327 902L328 906H462L563 763H438Z" />
<glyph unicode="&#xcb;" horiz-adv-x="587" d="M26 0L143 700H304L187 0H26ZM143 0L168 148H513L487 0H143ZM190 281L214 424H505L481 281H190ZM235 552L260 700H599L575 552H235ZM260 775Q228 775 205 798T182 854Q182 886 205 909T260 932Q292 932 315 909T339
854Q339 822 316 799T260 775ZM525 775Q493 775 470 798T446 854Q446 886 469 909T525 932Q557 932 580 909T603 854Q603 822 580 799T525 775Z" />
<glyph unicode="&#xcc;" horiz-adv-x="297" d="M26 0L143 700H304L187 0H26ZM194 752L91 895H256L341 752H194Z" />
<glyph unicode="&#xcd;" horiz-adv-x="297" d="M26 0L143 700H304L187 0H26ZM135 752L251 894H420L286 752H135Z" />
<glyph unicode="&#xce;" horiz-adv-x="297" d="M26 0L143 700H304L187 0H26ZM21 763L170 906H319V902L164 763H21ZM296 763L185 902L186 906H320L421 763H296Z" />
<glyph unicode="&#xcf;" horiz-adv-x="320" d="M169 775Q137 775 114 798T90 854Q90 886 113 909T169 932Q201 932 224 909T247 854Q247 822 224 799T169 775ZM353 775Q321 775 298 798T275 854Q275 886 298 909T353 932Q385 932 408 909T431 854Q431 822 408
799T353 775ZM38 0L155 700H316L199 0H38Z" />
<glyph unicode="&#xd0;" horiz-adv-x="743" d="M55 294L74 407H407L389 294H55ZM293 0L313 152Q359 152 401 167T478 210T536 277T567 360Q576 415 556 457T492 523T385 548L405 700Q516 700 594 654T710 527T729 340Q716 265 678 203T583 96T451 25T293 0ZM148
0L173 152H318L293 0H148ZM64 0L181 700H342L225 0H64ZM240 548L265 700H410L385 548H240Z" />
<glyph unicode="&#xd1;" horiz-adv-x="773" d="M502 0L171 612L313 700L643 91L502 0ZM26 0L143 700H313L280 554L187 0H26ZM502 0L619 700H780L663 0H502ZM548 720Q511 720 493 731T466 756T451 781T430 792Q418 792 406 785T385 753H286Q306 824 340 856T433
888Q469 888 487 877T513 852T529 827T552 816Q570 816 579 827T594 854H694Q674 792 641 756T548 720Z" />
<glyph unicode="&#xd2;" horiz-adv-x="794" d="M387 -12Q304 -12 236 16T121 96T56 218T51 375Q68 476 123 551T260 669T442 712Q525 712 592 684T706 604T772 481T776 324Q760 224 705 149T568 31T387 -12ZM393 136Q449 136 495 161T572 232T613 338Q624 404
605 455T541 535T436 564Q380 564 334 539T256 467T214 360Q203 295 223 244T288 165T393 136ZM411 752L308 895H473L558 752H411Z" />
<glyph unicode="&#xd3;" horiz-adv-x="794" d="M387 -12Q304 -12 236 16T121 96T56 218T51 375Q68 476 123 551T260 669T442 712Q525 712 592 684T706 604T772 481T776 324Q760 224 705 149T568 31T387 -12ZM393 136Q449 136 495 161T572 232T613 338Q624 404
605 455T541 535T436 564Q380 564 334 539T256 467T214 360Q203 295 223 244T288 165T393 136ZM352 752L468 894H637L503 752H352Z" />
<glyph unicode="&#xd4;" horiz-adv-x="794" d="M387 -12Q304 -12 236 16T121 96T56 218T51 375Q68 476 123 551T260 669T442 712Q525 712 592 684T706 604T772 481T776 324Q760 224 705 149T568 31T387 -12ZM393 136Q449 136 495 161T572 232T613 338Q624 404
605 455T541 535T436 564Q380 564 334 539T256 467T214 360Q203 295 223 244T288 165T393 136ZM238 763L387 906H536V902L381 763H238ZM513 763L402 902L403 906H537L638 763H513Z" />
<glyph unicode="&#xd5;" horiz-adv-x="794" d="M387 -12Q304 -12 236 16T121 96T56 218T51 375Q68 476 123 551T260 669T442 712Q525 712 592 684T706 604T772 481T776 324Q760 224 705 149T568 31T387 -12ZM393 136Q449 136 495 161T572 232T613 338Q624 404
605 455T541 535T436 564Q380 564 334 539T256 467T214 360Q203 295 223 244T288 165T393 136ZM532 736Q495 736 477 747T450 772T435 797T414 808Q402 808 390 801T369 769H270Q290 840 324 872T417 904Q453 904 471 893T497 868T513 843T536 832Q554 832 563
843T578 870H678Q658 808 625 772T532 736Z" />
<glyph unicode="&#xd6;" horiz-adv-x="794" d="M387 -12Q304 -12 236 16T121 96T56 218T51 375Q68 476 123 551T260 669T442 712Q525 712 592 684T706 604T772 481T776 324Q760 224 705 149T568 31T387 -12ZM393 136Q449 136 495 161T572 232T613 338Q624 404
605 455T541 535T436 564Q380 564 334 539T256 467T214 360Q203 295 223 244T288 165T393 136ZM336 775Q304 775 281 798T258 854Q258 886 281 909T336 932Q368 932 391 909T415 854Q415 822 392 799T336 775ZM601 775Q569 775 546 798T522 854Q522 886 545 909T601
932Q633 932 656 909T679 854Q679 822 656 799T601 775Z" />
<glyph unicode="&#xd7;" horiz-adv-x="636" d="M422 85L134 425L230 511L518 170L422 85ZM167 85L92 170L484 511L559 425L167 85Z" />
<glyph unicode="&#xd8;" horiz-adv-x="804" d="M-17 0L704 700H854L131 0H-17ZM386 -12Q303 -12 235 16T121 96T55 218T50 375Q68 476 123 551T260 669T442 712Q525 712 592 684T706 604T771 481T776 324Q760 224 705 149T567 31T386 -12ZM393 136Q448 136 494
161T571 232T613 338Q624 404 604 455T540 535T435 564Q380 564 333 539T255 467T213 360Q203 295 223 244T287 165T393 136Z" />
<glyph unicode="&#xd9;" horiz-adv-x="702" d="M315 -13Q223 -13 161 21T73 118T61 266H222Q215 225 225 196T259 152T321 136Q365 136 400 152T457 198T486 266H647Q632 178 588 116T475 20T315 -13ZM61 266L133 700H294L222 266H61ZM486 266L558 700H719L647
266H486ZM395 752L292 895H457L542 752H395Z" />
<glyph unicode="&#xda;" horiz-adv-x="702" d="M315 -13Q223 -13 161 21T73 118T61 266H222Q215 225 225 196T259 152T321 136Q365 136 400 152T457 198T486 266H647Q632 178 588 116T475 20T315 -13ZM61 266L133 700H294L222 266H61ZM486 266L558 700H719L647
266H486ZM336 752L452 894H621L487 752H336Z" />
<glyph unicode="&#xdb;" horiz-adv-x="702" d="M315 -13Q223 -13 161 21T73 118T61 266H222Q215 225 225 196T259 152T321 136Q365 136 400 152T457 198T486 266H647Q632 178 588 116T475 20T315 -13ZM61 266L133 700H294L222 266H61ZM486 266L558 700H719L647
266H486ZM222 763L371 906H520V902L365 763H222ZM497 763L386 902L387 906H521L622 763H497Z" />
<glyph unicode="&#xdc;" horiz-adv-x="702" d="M315 -13Q223 -13 161 21T73 118T61 266H222Q215 225 225 196T259 152T321 136Q365 136 400 152T457 198T486 266H647Q632 178 588 116T475 20T315 -13ZM61 266L133 700H294L222 266H61ZM486 266L558 700H719L647
266H486ZM319 775Q287 775 264 798T241 854Q241 886 264 909T319 932Q351 932 374 909T398 854Q398 822 375 799T319 775ZM584 775Q552 775 529 798T505 854Q505 886 528 909T584 932Q616 932 639 909T662 854Q662 822 639 799T584 775Z" />
<glyph unicode="&#xdd;" horiz-adv-x="666" d="M417 288L263 320L551 700H738L417 288ZM211 0L267 336H428L372 0H211ZM267 288L84 700H262L423 320L267 288ZM314 728L430 870H599L465 728H314Z" />
<glyph unicode="&#xde;" horiz-adv-x="630" d="M198 118L222 266H350Q386 266 412 280T452 318T468 368Q470 405 449 427T386 450H253L278 597L408 598Q474 599 526 572T608 496T636 384Q634 310 595 250T491 154T344 118H198ZM34 1L151 701H316L199 1H34Z" />
<glyph unicode="&#xdf;" horiz-adv-x="598" d="M9 0L91 489Q104 565 142 614T238 688T368 712Q442 712 495 688T573 616T585 494Q579 458 559 424T505 362T428 318T335 301H292L313 426H319Q350 426 373 437T412 468T432 515Q438 547 418 563T365 579Q335 579
310 567T269 533T246 480L166 0H9ZM241 0L265 142H298Q339 142 369 166T405 223Q411 251 392 267T333 284H289L310 403H316Q456 403 516 354T558 189Q542 97 473 49T302 0H241Z" />
<glyph unicode="&#xe0;" horiz-adv-x="601" d="M360 0L368 93L436 500H592L508 0H360ZM225 -12Q154 -12 105 21T36 113T27 253Q35 311 55 358T108 440T183 493T277 512Q348 512 387 478T440 385T442 248Q434 186 416 138T369 56T305 5T225 -12ZM278 132Q302 132
322 141T357 168T382 207T395 255Q401 305 376 336T307 368Q283 368 263 358T226 332T201 293T188 246Q183 196 208 164T278 132ZM280 558L177 701H342L427 558H280Z" />
<glyph unicode="&#xe1;" horiz-adv-x="601" d="M360 0L368 93L436 500H592L508 0H360ZM225 -12Q154 -12 105 21T36 113T27 253Q35 311 55 358T108 440T183 493T277 512Q348 512 387 478T440 385T442 248Q434 186 416 138T369 56T305 5T225 -12ZM278 132Q302 132
322 141T357 168T382 207T395 255Q401 305 376 336T307 368Q283 368 263 358T226 332T201 293T188 246Q183 196 208 164T278 132ZM221 558L337 700H506L372 558H221Z" />
<glyph unicode="&#xe2;" horiz-adv-x="601" d="M360 0L368 93L436 500H592L508 0H360ZM225 -12Q154 -12 105 21T36 113T27 253Q35 311 55 358T108 440T183 493T277 512Q348 512 387 478T440 385T442 248Q434 186 416 138T369 56T305 5T225 -12ZM278 132Q302 132
322 141T357 168T382 207T395 255Q401 305 376 336T307 368Q283 368 263 358T226 332T201 293T188 246Q183 196 208 164T278 132ZM107 569L256 712H405V708L250 569H107ZM382 569L271 708L272 712H406L507 569H382Z" />
<glyph unicode="&#xe3;" horiz-adv-x="601" d="M360 0L368 93L436 500H592L508 0H360ZM225 -12Q154 -12 105 21T36 113T27 253Q35 311 55 358T108 440T183 493T277 512Q348 512 387 478T440 385T442 248Q434 186 416 138T369 56T305 5T225 -12ZM278 132Q302 132
322 141T357 168T382 207T395 255Q401 305 376 336T307 368Q283 368 263 358T226 332T201 293T188 246Q183 196 208 164T278 132ZM401 542Q364 542 346 553T319 578T304 603T283 614Q271 614 259 607T238 575H139Q159 646 193 678T286 710Q322 710 340 699T366
674T382 649T405 638Q423 638 432 649T447 676H547Q527 614 494 578T401 542Z" />
<glyph unicode="&#xe4;" horiz-adv-x="601" d="M360 0L368 93L436 500H592L508 0H360ZM225 -12Q154 -12 105 21T36 113T27 253Q35 311 55 358T108 440T183 493T277 512Q348 512 387 478T440 385T442 248Q434 186 416 138T369 56T305 5T225 -12ZM278 132Q302 132
322 141T357 168T382 207T395 255Q401 305 376 336T307 368Q283 368 263 358T226 332T201 293T188 246Q183 196 208 164T278 132ZM204 581Q172 581 149 604T126 660Q126 692 149 715T204 738Q236 738 259 715T283 660Q283 628 260 605T204 581ZM469 581Q437 581
414 604T390 660Q390 692 413 715T469 738Q501 738 524 715T547 660Q547 628 524 605T469 581Z" />
<glyph unicode="&#xe5;" horiz-adv-x="601" d="M360 0L368 93L436 500H592L508 0H360ZM225 -12Q154 -12 105 21T36 113T27 253Q35 311 55 358T108 440T183 493T277 512Q348 512 387 478T440 385T442 248Q434 186 416 138T369 56T305 5T225 -12ZM278 132Q302 132
322 141T357 168T382 207T395 255Q401 305 376 336T307 368Q283 368 263 358T226 332T201 293T188 246Q183 196 208 164T278 132ZM325 529Q276 529 242 559T207 637Q207 679 226 708T276 754T345 770Q394 770 427 739T462 661Q463 620 443 590T392 545T325 529ZM327
615Q345 615 356 627T368 660Q368 684 342 684Q324 684 313 672T301 639Q301 628 308 622T327 615Z" />
<glyph unicode="&#xe6;" horiz-adv-x="877" d="M335 164L344 254Q348 295 348 324T335 370T282 386Q250 386 228 373T184 335L49 388Q94 448 152 480T285 512Q356 512 400 483T461 400T466 274L448 164H335ZM178 -12Q87 -12 42 30T10 151Q22 224 74 259T213 295H374L358
201H265Q217 201 193 184T164 137Q162 120 174 110T216 100Q264 100 294 130T333 209L456 215Q438 105 365 47T178 -12ZM569 -12Q489 -6 434 31T354 129T342 268Q355 346 398 402T506 488T650 511Q726 506 777 471T850 370T855 213H702Q712 268 710 309T688 374T628
401Q593 403 567 385T523 332T497 248Q489 200 498 170T530 125T582 109Q621 106 651 123T696 167L824 110Q798 62 756 34T664 -4T569 -12ZM439 213L441 312H787L786 213H439Z" />
<glyph unicode="&#xe7;" horiz-adv-x="554" d="M265 -12Q207 -12 160 9T79 67T32 154T27 260Q40 335 77 391T177 480T327 512Q378 512 424 492T503 437T546 356L394 313Q383 340 362 353T307 367Q274 367 249 352T207 311T186 252Q180 218 190 191T224 149T277
133Q313 133 341 150T383 192L520 136Q480 62 414 25T265 -12ZM181 -211Q157 -211 130 -202T77 -174L105 -112Q119 -120 132 -124T156 -129Q179 -129 193 -121T207 -98Q207 -85 191 -78T147 -69L193 5L281 2L254 -30Q283 -40 299 -60T315 -105Q315 -155 280 -183T181
-211Z" />
<glyph unicode="&#xe8;" horiz-adv-x="563" d="M255 -12Q176 -6 121 31T40 129T28 268Q41 346 84 402T193 488T336 511Q412 506 464 471T537 370T541 213H389Q398 268 396 309T375 374T315 401Q279 403 253 385T209 332T183 248Q176 200 185 170T217 125T269 109Q307
106 337 123T382 167L511 110Q485 62 443 34T351 -4T255 -12ZM125 213L128 312H474L472 213H125ZM305 558L202 701H367L452 558H305Z" />
<glyph unicode="&#xe9;" horiz-adv-x="563" d="M255 -12Q176 -6 121 31T40 129T28 268Q41 346 84 402T193 488T336 511Q412 506 464 471T537 370T541 213H389Q398 268 396 309T375 374T315 401Q279 403 253 385T209 332T183 248Q176 200 185 170T217 125T269 109Q307
106 337 123T382 167L511 110Q485 62 443 34T351 -4T255 -12ZM125 213L128 312H474L472 213H125ZM246 558L362 700H531L397 558H246Z" />
<glyph unicode="&#xea;" horiz-adv-x="563" d="M255 -12Q176 -6 121 31T40 129T28 268Q41 346 84 402T193 488T336 511Q412 506 464 471T537 370T541 213H389Q398 268 396 309T375 374T315 401Q279 403 253 385T209 332T183 248Q176 200 185 170T217 125T269 109Q307
106 337 123T382 167L511 110Q485 62 443 34T351 -4T255 -12ZM125 213L128 312H474L472 213H125ZM132 569L281 712H430V708L275 569H132ZM407 569L296 708L297 712H431L532 569H407Z" />
<glyph unicode="&#xeb;" horiz-adv-x="563" d="M255 -12Q176 -6 121 31T40 129T28 268Q41 346 84 402T193 488T336 511Q412 506 464 471T537 370T541 213H389Q398 268 396 309T375 374T315 401Q279 403 253 385T209 332T183 248Q176 200 185 170T217 125T269 109Q307
106 337 123T382 167L511 110Q485 62 443 34T351 -4T255 -12ZM125 213L128 312H474L472 213H125ZM230 581Q198 581 175 604T152 660Q152 692 175 715T230 738Q262 738 285 715T309 660Q309 628 286 605T230 581ZM495 581Q463 581 440 604T416 660Q416 692 439 715T495
738Q527 738 550 715T573 660Q573 628 550 605T495 581Z" />
<glyph unicode="&#xec;" horiz-adv-x="276" d="M18 0L102 500H258L174 0H18ZM406 558L303 701H468L553 558H406Z" />
<glyph unicode="&#xed;" horiz-adv-x="276" d="M18 0L102 500H258L174 0H18ZM347 558L463 700H632L498 558H347Z" />
<glyph unicode="&#xee;" horiz-adv-x="276" d="M18 0L102 500H258L174 0H18ZM233 569L382 712H531V708L376 569H233ZM508 569L397 708L398 712H532L633 569H508Z" />
<glyph unicode="&#xef;" horiz-adv-x="276" d="M113 581Q81 581 58 604T34 660Q34 692 57 715T113 738Q145 738 168 715T191 660Q191 628 168 605T113 581ZM297 581Q265 581 242 604T219 660Q219 692 242 715T297 738Q329 738 352 715T375 660Q375 628 352 605T297
581ZM18 0L102 500H258L174 0H18Z" />
<glyph unicode="&#xf0;" horiz-adv-x="567" d="M245 -12Q168 -12 114 19T35 105T22 232Q33 299 68 349T159 429T282 458Q315 458 347 447T405 417T445 375T458 329L528 234Q515 161 475 106T375 19T245 -12ZM247 129Q277 129 302 142T344 178T366 232Q371 257
364 276T340 305T298 316Q269 316 244 303T202 266T179 213Q176 188 182 169T206 140T247 129ZM528 234L393 321Q403 380 401 425T379 504T315 562T195 605L235 731Q327 717 387 683T482 601T531 493T543 368T528 234ZM273 475L245 534L534 691L565 633L273 475Z"
/>
<glyph unicode="&#xf1;" horiz-adv-x="573" d="M9 0L93 500H240L233 408L165 0H9ZM330 0L373 256L534 286L486 0H330ZM373 256Q380 296 375 319T356 354T317 366Q272 367 245 341T209 264L162 265Q175 344 208 399T287 483T388 512Q480 512 517 457T534 286L373
256ZM467 542Q430 542 412 553T385 578T370 603T349 614Q337 614 325 607T304 575H205Q225 646 259 678T352 710Q388 710 406 699T432 674T448 649T471 638Q489 638 498 649T513 676H613Q593 614 560 578T467 542Z" />
<glyph unicode="&#xf2;" horiz-adv-x="587" d="M277 -12Q195 -12 134 23T44 122T28 268Q41 341 81 396T180 481T311 512Q394 512 455 477T544 378T559 232Q547 159 507 104T408 19T277 -12ZM281 132Q310 132 335 146T377 185T400 245Q406 283 396 310T362 353T307
368Q278 368 253 354T211 315T187 255Q181 217 192 190T226 147T281 132ZM304 558L201 701H366L451 558H304Z" />
<glyph unicode="&#xf3;" horiz-adv-x="587" d="M277 -12Q195 -12 134 23T44 122T28 268Q41 341 81 396T180 481T311 512Q394 512 455 477T544 378T559 232Q547 159 507 104T408 19T277 -12ZM281 132Q310 132 335 146T377 185T400 245Q406 283 396 310T362 353T307
368Q278 368 253 354T211 315T187 255Q181 217 192 190T226 147T281 132ZM245 558L361 700H530L396 558H245Z" />
<glyph unicode="&#xf4;" horiz-adv-x="587" d="M277 -12Q195 -12 134 23T44 122T28 268Q41 341 81 396T180 481T311 512Q394 512 455 477T544 378T559 232Q547 159 507 104T408 19T277 -12ZM281 132Q310 132 335 146T377 185T400 245Q406 283 396 310T362 353T307
368Q278 368 253 354T211 315T187 255Q181 217 192 190T226 147T281 132ZM131 569L280 712H429V708L274 569H131ZM406 569L295 708L296 712H430L531 569H406Z" />
<glyph unicode="&#xf5;" horiz-adv-x="587" d="M277 -12Q195 -12 134 23T44 122T28 268Q41 341 81 396T180 481T311 512Q394 512 455 477T544 378T559 232Q547 159 507 104T408 19T277 -12ZM281 132Q310 132 335 146T377 185T400 245Q406 283 396 310T362 353T307
368Q278 368 253 354T211 315T187 255Q181 217 192 190T226 147T281 132ZM424 542Q387 542 369 553T342 578T327 603T306 614Q294 614 282 607T261 575H162Q182 646 216 678T309 710Q345 710 363 699T389 674T405 649T428 638Q446 638 455 649T470 676H570Q550
614 517 578T424 542Z" />
<glyph unicode="&#xf6;" horiz-adv-x="587" d="M277 -12Q195 -12 134 23T44 122T28 268Q41 341 81 396T180 481T311 512Q394 512 455 477T544 378T559 232Q547 159 507 104T408 19T277 -12ZM281 132Q310 132 335 146T377 185T400 245Q406 283 396 310T362 353T307
368Q278 368 253 354T211 315T187 255Q181 217 192 190T226 147T281 132ZM228 581Q196 581 173 604T150 660Q150 692 173 715T228 738Q260 738 283 715T307 660Q307 628 284 605T228 581ZM493 581Q461 581 438 604T414 660Q414 692 437 715T493 738Q525 738 548
715T571 660Q571 628 548 605T493 581Z" />
<glyph unicode="&#xf7;" horiz-adv-x="636" d="M105 235L127 361H547L525 235H105ZM297 62Q266 62 248 84T234 138Q238 161 256 178T298 195Q329 195 348 172T362 119Q359 96 340 79T297 62ZM354 401Q323 401 304 423T289 476Q294 499 313 516T355 533Q386 533
404 511T418 457Q414 434 396 418T354 401Z" />
<glyph unicode="&#xf8;" horiz-adv-x="591" d="M-30 0L495 500H621L94 0H-30ZM279 -12Q197 -12 136 23T46 122T30 268Q43 341 83 396T182 481T313 512Q396 512 457 477T546 378T561 232Q549 159 509 104T410 19T279 -12ZM283 132Q312 132 337 146T379 185T402
245Q408 283 398 310T364 353T309 368Q280 368 255 354T213 315T189 255Q183 217 194 190T228 147T283 132Z" />
<glyph unicode="&#xf9;" horiz-adv-x="574" d="M334 0L341 92L409 500H565L481 0H334ZM39 214L87 500H243L200 244L39 214ZM200 244Q193 205 198 181T218 146T256 134Q301 134 328 159T365 236L411 235Q398 156 366 101T287 17T185 -12Q94 -12 57 44T39 214L200
244ZM295 558L192 701H357L442 558H295Z" />
<glyph unicode="&#xfa;" horiz-adv-x="574" d="M334 0L341 92L409 500H565L481 0H334ZM39 214L87 500H243L200 244L39 214ZM200 244Q193 205 198 181T218 146T256 134Q301 134 328 159T365 236L411 235Q398 156 366 101T287 17T185 -12Q94 -12 57 44T39 214L200
244ZM236 558L352 700H521L387 558H236Z" />
<glyph unicode="&#xfb;" horiz-adv-x="574" d="M334 0L341 92L409 500H565L481 0H334ZM39 214L87 500H243L200 244L39 214ZM200 244Q193 205 198 181T218 146T256 134Q301 134 328 159T365 236L411 235Q398 156 366 101T287 17T185 -12Q94 -12 57 44T39 214L200
244ZM122 569L271 712H420V708L265 569H122ZM397 569L286 708L287 712H421L522 569H397Z" />
<glyph unicode="&#xfc;" horiz-adv-x="574" d="M334 0L341 92L409 500H565L481 0H334ZM39 214L87 500H243L200 244L39 214ZM200 244Q193 205 198 181T218 146T256 134Q301 134 328 159T365 236L411 235Q398 156 366 101T287 17T185 -12Q94 -12 57 44T39 214L200
244ZM219 581Q187 581 164 604T141 660Q141 692 164 715T219 738Q251 738 274 715T298 660Q298 628 275 605T219 581ZM484 581Q452 581 429 604T405 660Q405 692 428 715T484 738Q516 738 539 715T562 660Q562 628 539 605T484 581Z" />
<glyph unicode="&#xfd;" horiz-adv-x="599" d="M100 -212Q69 -212 35 -200T-21 -173L58 -48Q83 -67 106 -67Q125 -67 142 -58T171 -27L254 112L466 500H639L329 -31Q298 -84 268 -125T198 -189T100 -212ZM194 0L44 500H216L309 112L342 0H194ZM252 558L368 700H537L403
558H252Z" />
<glyph unicode="&#xfe;" horiz-adv-x="602" d="M-24 -200L126 700H282L132 -200H-24ZM377 512Q449 512 497 479T567 387T576 247Q568 189 547 142T494 60T419 7T325 -12Q255 -12 215 22T162 115T161 252Q169 314 187 362T234 444T298 495T377 512ZM324 368Q300
368 280 359T245 332T220 293T208 245Q202 195 227 164T295 132Q319 132 339 142T376 168T402 207T414 254Q419 304 394 336T324 368Z" />
<glyph unicode="&#xff;" horiz-adv-x="599" d="M100 -212Q69 -212 35 -200T-21 -173L58 -48Q83 -67 106 -67Q125 -67 142 -58T171 -27L254 112L466 500H639L329 -31Q298 -84 268 -125T198 -189T100 -212ZM194 0L44 500H216L309 112L342 0H194ZM235 581Q203 581
180 604T157 660Q157 692 180 715T235 738Q267 738 290 715T314 660Q314 628 291 605T235 581ZM500 581Q468 581 445 604T421 660Q421 692 444 715T500 738Q532 738 555 715T578 660Q578 628 555 605T500 581Z" />
<glyph unicode="&#x2013;" horiz-adv-x="550" d="M-3 232L19 364H569L547 232H-3Z" />
<glyph unicode="&#x2014;" horiz-adv-x="1100" d="M-3 232L19 364H1119L1097 232H-3Z" />
<glyph unicode="&#x2018;" horiz-adv-x="240" d="M305 700L200 452H38L187 700H305Z" />
<glyph unicode="&#x2019;" horiz-adv-x="240" d="M44 452L149 700H311L162 452H44Z" />
<glyph unicode="&#x201a;" horiz-adv-x="271" d="M-38 -114L67 134H229L80 -114H-38Z" />
<glyph unicode="&#x201c;" horiz-adv-x="457" d="M305 703L200 455H39L187 703H305ZM523 703L418 455H256L405 703H523Z" />
<glyph unicode="&#x201d;" horiz-adv-x="457" d="M262 452L367 700H529L380 452H262ZM44 452L149 700H311L162 452H44Z" />
<glyph unicode="&#x201e;" horiz-adv-x="452" d="M160 -114L265 134H427L278 -114H160ZM199 -114L304 134H466L317 -114H199Z" />
<glyph unicode="&#x2022;" horiz-adv-x="459" d="M224 161Q187 161 159 179T117 228T110 296Q115 329 135 355T184 396T245 412Q284 412 312 394T354 345T362 277Q356 245 336 219T287 177T224 161Z" />
<glyph unicode="&#x2039;" horiz-adv-x="423" d="M54 298L232 500H413L241 298H54ZM169 96L58 298H237L341 96H169Z" />
<glyph unicode="&#x203a;" horiz-adv-x="423" d="M385 298L206 96H26L198 298H385ZM269 500L381 298H201L98 500H269Z" />
</font>
</defs>
</svg>
